<svg xmlns:svg="http://www.w3.org/2000/svg" xmlns="http://www.w3.org/2000/svg" width="98.6" height="157.2" version="1.1"><style>.s0{fill:#73cbd1;}</style><defs><clipPath clipPathUnits="userSpaceOnUse"><path d="m0 907.1 595.3 0L595.3 0 0 0 0 907.1z"/></clipPath></defs><g transform="translate(-353.54508,-405.1944)"><g transform="matrix(1.25,0,0,-1.25,3.5690757,1523.3099)"><g clip-path="url(#clipPath3126)"><g transform="translate(295.7918,818.6376)"><path d="m0 0 0-0.1c1.4-0.6 2.4-1.7 3-3.3 0.3-0.8 0.4-1.6 0.4-2.2 0-2.3-1.1-4.1-3.3-5.5l-0.1 0 0-0.1 1.6 0c2.7 0 4.5 0.5 5.3 1.6 1.1 1.1 1.6 2.3 1.6 3.6l0 0.7c0 2.1-1.2 3.8-3.7 4.9C4.1-0.1 3.1 0 1.6 0L0 0zm-4.7-11.8 7.9-11.1 5 0 0 0.1-7.9 11.1-4.9 0zM-9.3 0l0-11.1 5.1 0c2.7 0 4.4 0.5 5.2 1.6 1.1 1.1 1.7 2.4 1.7 4 0 2.5-1.3 4.2-4 5.3C-1.9-0.1-2.9 0-4.2 0l-5.1 0zm-5.8-22.9 5.1 0 0 11.1-5.1 0 0-11.1zm0 11.8 5.1 0 0 11.1-5.1 0 0-11.1zm-0.5 11.8 19.1 0c2 0 3.8-1.1 5.1-3.4 0.4-0.8 0.6-1.6 0.6-2.3l0-0.9c0-2-1.1-3.8-3.4-5.1-0.8-0.4-1.6-0.6-2.3-0.6l-2.3 0 0-0.1 8-11.2 0-0.3-0.2-0.2-6.1 0-8.6 11.8-3.7 0 0-11.5-0.2-0.2-6.1 0-0.2 0.2 0 23.8 0.2 0.2z" fill="#73cbd1"/></g><g transform="translate(322.7405,803.917)"><path d="m0 0 3.3-8.2 5.1 0C6.4-3.1 5.2-0.3 5 0L0 0zm-0.7 14-2.4-6.3 2.8-7 5.1 0C1.3 9.5-0.5 13.9-0.7 14m-2.8-7.3-2.3-6 4.8 0-2.4 6-0.1 0zm-2.4 8 2.4-6.1 0.1 0 2.3 6.1-4.8 0zm-5.7-14 5 0 2.8 6.9-2.6 6.4C-6.6 13.7-7.9 10.3-10.4 3.8l-1.2-3.1zm-3.3-8.9 4.9 0c0.2 0.2 1.3 3 3.2 8.2l-4.9 0c-0.2-0.2-1.3-3-3.2-8.2m14.4 23.5c0.3-0.2 1.5-3.1 3.7-8.8 4.1-9.7 6.1-14.8 6.1-15.1l0-0.1-0.2-0.2-6.1 0C2.8-8.7 1.9-6.7 0.5-2.9L-0.7 0-6.1 0c-2-5.3-3.1-8.2-3.4-8.8l-6.2 0-0.2 0.2 0 0.1c0 0.4 3.1 8.3 9.1 23.8l0.1 0.1 6.1 0z" fill="#73cbd1"/></g><g transform="translate(347.0411,818.6376)"><path d="m0 0 0-0.1c4.1-1.8 6.1-4.9 6.1-9.4l0-3.9c0-4.5-2-7.6-6.1-9.4l0-0.1 0.5 0c3.4 0 5.7 0.6 6.9 1.8 0.9 0.6 1.8 1.6 2.6 2.9 0.7 1.5 1 2.7 1 3.8l0 5.9c0 2.7-1.4 5.1-4.2 7.2C5.6-0.4 3.5 0 0.5 0L0 0zm-6.7 0 0-22.9 1.4 0c3.5 0 5.9 0.6 7.2 1.9 2.3 1.8 3.5 4.2 3.5 7.4l0 4.2c0 4.5-2.2 7.5-6.6 9C-2.2-0.1-3.5 0-5.3 0l-1.4 0zm-5.8-22.9 5.1 0 0 22.9-5.1 0 0-22.9zm-0.5 23.5 15.7 0c2.8 0 5.3-1.3 7.4-4 1.2-1.7 1.8-3.4 1.8-5.2l0-5.8c0-2.8-1.3-5.3-4-7.4-1.7-1.2-3.4-1.8-5.2-1.8l-15.7 0-0.2 0.2 0 23.8 0.2 0.2z" fill="#73cbd1"/></g><g transform="translate(291.5591,770.2203)"><path d="m0 0c1 0 2 0.1 2.9 0.4 0.9 0.3 1.8 0.7 2.6 1.2L5.7 1.5C5.7 1.5 5.8 1.4 6 1.3 6.1 1.1 6.3 1 6.6 0.7 5.7 0.1 4.7-0.5 3.5-0.8 2.4-1.2 1.2-1.4 0-1.4c-1.5 0-3 0.3-4.4 0.9-1.4 0.6-2.5 1.4-3.6 2.4-1 1-1.8 2.2-2.4 3.6-0.6 1.4-0.9 2.8-0.9 4.4 0 1.5 0.3 3 0.9 4.4 0.6 1.4 1.4 2.5 2.4 3.6 1 1 2.2 1.8 3.6 2.4 1.4 0.6 2.8 0.9 4.4 0.9 1.2 0 2.4-0.2 3.5-0.6C4.7 20.1 5.7 19.5 6.6 18.9 6.4 18.7 6.2 18.5 6.1 18.4 5.9 18.3 5.7 18.1 5.5 17.9 4.7 18.5 3.9 18.9 2.9 19.2 2 19.5 1 19.6 0 19.6-1.3 19.6-2.6 19.3-3.8 18.8-5 18.3-6.1 17.6-7 16.7-7.8 15.8-8.5 14.8-9.1 13.6-9.6 12.4-9.8 11.2-9.8 9.8-9.8 8.5-9.6 7.2-9.1 6-8.5 4.8-7.8 3.8-7 2.9-6.1 2-5 1.3-3.8 0.8-2.6 0.3-1.3 0 0 0" fill="#73cbd1"/></g><g transform="translate(311.5952,770.2203)"><path d="m0 0c1.3 0 2.6 0.3 3.8 0.8 1.2 0.5 2.2 1.2 3.1 2.1 0.9 0.9 1.6 1.9 2.1 3.1 0.5 1.2 0.8 2.4 0.8 3.8 0 1.3-0.3 2.6-0.8 3.8C8.5 14.7 7.8 15.7 6.9 16.6 6 17.5 5 18.2 3.8 18.7 2.6 19.2 1.3 19.4 0 19.4c-1.3 0-2.6-0.3-3.8-0.8-1.2-0.5-2.2-1.2-3.1-2.1-0.9-0.9-1.6-1.9-2.1-3.1-0.5-1.2-0.8-2.4-0.8-3.8 0-1.3 0.3-2.6 0.8-3.8C-8.4 4.8-7.7 3.7-6.9 2.8-6 2-5 1.3-3.8 0.8-2.6 0.3-1.3 0 0 0m0 20.9c1.5 0 3-0.3 4.4-0.9 1.4-0.6 2.5-1.4 3.6-2.4 1-1 1.8-2.2 2.4-3.6 0.6-1.4 0.9-2.8 0.9-4.4 0-1.5-0.3-3-0.9-4.4C9.8 4 9 2.8 7.9 1.8 6.9 0.8 5.7 0 4.4-0.6 3-1.2 1.5-1.5 0-1.5c-1.5 0-3 0.3-4.4 0.9-1.4 0.6-2.5 1.4-3.6 2.4-1 1-1.8 2.2-2.4 3.6-0.6 1.4-0.9 2.8-0.9 4.4 0 1.5 0.3 3 0.9 4.4 0.6 1.4 1.4 2.5 2.4 3.6 1 1 2.2 1.8 3.6 2.4 1.4 0.6 2.8 0.9 4.4 0.9" fill="#73cbd1"/></g><g transform="translate(334.1239,770.9948)"><path d="m0 0c1.2 0.5 2.2 1.2 3.1 2.1 0.9 0.9 1.6 1.9 2.1 3.1 0.5 1.2 0.8 2.5 0.8 3.8 0 1.3-0.3 2.6-0.8 3.8-0.5 1.2-1.2 2.2-2.1 3.1-0.9 0.9-1.9 1.6-3.1 2.1-1.2 0.5-2.5 0.8-3.8 0.8l-4 0 0-19.6 4 0C-2.5-0.8-1.2-0.5 0 0M7.4 9C7.4 7.5 7.1 6 6.5 4.7 5.9 3.3 5.2 2.1 4.1 1.1 3.1 0.1 1.9-0.7 0.6-1.3-0.8-1.9-2.2-2.2-3.8-2.2l-5.5 0 0 22.4 5.5 0c1.5 0 3-0.3 4.4-0.9 1.4-0.6 2.5-1.4 3.6-2.4 1-1 1.8-2.2 2.4-3.6 0.6-1.4 0.9-2.8 0.9-4.4" fill="#73cbd1"/></g><g transform="translate(344.9337,789.7512)"><path d="m0 0 0-9.1 7 0 0-1.5-7 0 0-9 11.1 0 0-1.5-12.5 0 0 22.5 12.5 0L11.1 0 0 0z" fill="#73cbd1"/></g><g transform="translate(333.5963,844.7509)"><path d="m0 0-14.3 5.2 0.2 0.6L0.2 0.6 0 0z" fill="#73cbd1"/></g><g transform="translate(329.6161,831.4606)"><path d="M0 0-0.6 0.2 3.8 13.7 4.4 13.5 0 0z" fill="#73cbd1"/></g><g transform="translate(319.6419,839.6127)"><path d="M0 0-0.4 0.5 8.4 7.7 8.8 7.2 0 0z" fill="#73cbd1"/></g><g transform="translate(329.08,831.308)"><path d="M0 0-9.9 8.3-9.4 8.8 0.4 0.5 0 0z" fill="#73cbd1"/></g><g transform="translate(319.5595,827.2303)"><path d="m0 0-0.3 0.6 29.5 12.3 7.8 26.2-6.6 16.5 0.6 0.2L37.7 39.1 29.7 12.4 0 0z" fill="#73cbd1"/></g><g transform="translate(350.211,882.6609)"><path d="m0 0-14.3 5.3 0.2 0.6L0.2 0.6 0 0z" fill="#73cbd1"/></g><path d="m336 888-16.6 0 0 0.7 16.6 0 0-0.7z" fill="#73cbd1"/><g transform="translate(327.8235,867.4609)"><path d="M0 0-0.2 0.7 6.2 2.3 8.8 6.1-8.4 6-8.4 6.6 10 6.8 6.6 1.7 0 0z" fill="#73cbd1"/></g><g transform="translate(333.3865,844.9792)"><path d="M0 0-7.8 28.8-7.1 29 0.6 0.2 0 0z" fill="#73cbd1"/></g><g transform="translate(326.1967,873.6954)"><path d="m0 0-0.6 0.4 13.7 19.6 6 0.8 7.2-5.3-1.9-6.3-0.6 0.2 1.8 5.9-6.6 4.8L13.5 19.4 0 0z" fill="#73cbd1"/></g><g transform="translate(333.9032,844.791)"><path d="M0 0-0.4 0.6 11.1 8.5 16.1 38.2 16.8 38.1 11.7 8.1 0 0z" fill="#73cbd1"/></g><g transform="translate(305.2642,844.7509)"><path d="M0 0-0.2 0.6 14.1 5.8 14.3 5.2 0 0z" fill="#73cbd1"/></g><g transform="translate(309.244,831.4606)"><path d="M0 0-4.4 13.5-3.8 13.7 0.6 0.2 0 0z" fill="#73cbd1"/></g><g transform="translate(319.2184,839.6127)"><path d="M0 0-8.8 7.2-8.4 7.7 0.4 0.5 0 0z" fill="#73cbd1"/></g><g transform="translate(309.7801,831.308)"><path d="M0 0-0.4 0.5 9.4 8.8 9.9 8.3 0 0z" fill="#73cbd1"/></g><g transform="translate(319.3008,827.2303)"><path d="m0 0-29.7 12.4-8 26.8 0 0.1 6.6 16.6 0.6-0.2-6.6-16.5 7.8-26.2L0.3 0.6 0 0z" fill="#73cbd1"/></g><g transform="translate(288.6491,882.6609)"><path d="M0 0-0.2 0.6 14 6 14.3 5.3 0 0z" fill="#73cbd1"/></g><path d="m319.4 888-16.6 0 0 0.7 16.6 0 0-0.7z" fill="#73cbd1"/><g transform="translate(311.0369,867.4609)"><path d="M0 0-6.6 1.7-10 6.8 8.4 6.6 8.4 6-8.8 6.1-6.2 2.3 0.2 0.7 0 0z" fill="#73cbd1"/></g><g transform="translate(305.4738,844.9792)"><path d="M0 0-0.6 0.2 7.1 29 7.8 28.8 0 0z" fill="#73cbd1"/></g><g transform="translate(312.6636,873.6954)"><path d="m0 0-13.5 19.4-5.4 0.7-6.6-4.8 1.8-5.9-0.6-0.2-1.9 6.3 7.2 5.3 6-0.8L0.6 0.4 0 0z" fill="#73cbd1"/></g><g transform="translate(304.957,844.791)"><path d="m0 0-11.7 8.1 0 0.1-5.1 29.9 0.7 0.1L-11.1 8.5 0.4 0.6 0 0z" fill="#73cbd1"/></g></g></g></g></svg>